<svg xmlns="http://www.w3.org/2000/svg" viewBox="0 0 170 197">
  <g fill="none" fill-rule="evenodd" stroke="#17486E" transform="translate(0 2)">
    <ellipse cx="87.92" cy="48.546" stroke-width="7.865" rx="30.616" ry="31.183"/>
    <ellipse cx="87.519" cy="116.362" fill-rule="nonzero" stroke-width="7.865" rx="55.94" ry="72.571"/>
    <path stroke-width="6.5" d="M39.160713 76.32738C39.160713 76.32738 28.955363 72.9256 22.529763 68.38988 16.104163 63.85417 10.056553 55.916668 10.056553 55.916668M30.089283 117.14881L.607143 117.14881M42.184525 160.99405C42.184525 160.99405 27.821433 165.52976 21.017863 173.08929 14.214283 180.64881 9.678573 193.12202 9.678573 193.12202M131.34709 75.81193C131.34709 75.81193 141.55244 72.41015 147.97804 67.87443 154.40364 63.33872 160.45125 55.401218 160.45125 55.401218M140.41852 116.63336L169.90066 116.63336M128.32327 160.4786C128.32327 160.4786 142.68637 165.01431 149.48994 172.57384 156.29352 180.13336 160.82923 192.60657 160.82923 192.60657"/>
    <path stroke-width="4" d="M66.752976 24.922618C66.752976 24.922618 58.437501 2.244046 49.744049 2.244046 41.050595 2.244046 30.467263 12.827379 30.467263 12.827379M105.91629 22.932532C105.91629 22.932532 114.23177.25396 122.92522.25396 131.61867.25396 142.20201 10.837293 142.20201 10.837293"/>
  </g>
</svg>
